{
	"asset":{
		"generator":"Khronos glTF Blender I/O v4.0.44",
		"version":"2.0"
	},
	"scene":0,
	"scenes":[
		{
			"name":"Scene",
			"nodes":[
				0
			]
		}
	],
	"nodes":[
		{
			"mesh":0,
			"name":"dragon.001"
		}
	],
	"meshes":[
		{
			"name":"dragon.001",
			"primitives":[
				{
					"attributes":{
						"POSITION":0,
						"NORMAL":1
					},
					"indices":2
				}
			]
		}
	],
	"accessors":[
		{
			"bufferView":0,
			"componentType":5126,
			"count":40842,
			"max":[
				3.7149271965026855,
				4.861624240875244,
				1.69236159324646
			],
			"min":[
				-3.3192203044891357,
				-0.09706955403089523,
				-1.4662584066390991
			],
			"type":"VEC3"
		},
		{
			"bufferView":1,
			"componentType":5126,
			"count":40842,
			"type":"VEC3"
		},
		{
			"bufferView":2,
			"componentType":5123,
			"count":40842,
			"type":"SCALAR"
		}
	],
	"bufferViews":[
		{
			"buffer":0,
			"byteLength":490104,
			"byteOffset":0,
			"target":34962
		},
		{
			"buffer":0,
			"byteLength":490104,
			"byteOffset":490104,
			"target":34962
		},
		{
			"buffer":0,
			"byteLength":81684,
			"byteOffset":980208,
			"target":34963
		}
	],
	"buffers":[
		{
			"byteLength":1061892,
			"uri":"dragon.bin"
		}
	]
}
