{
	"asset":{
		"generator":"Khronos glTF Blender I/O v4.5.48",
		"version":"2.0"
	},
	"extensionsUsed":[
		"KHR_materials_specular"
	],
	"scene":0,
	"scenes":[
		{
			"name":"Scene",
			"nodes":[
				28
			]
		}
	],
	"nodes":[
		{
			"mesh":0,
			"name":"arm_lowres_M_Hands_0"
		},
		{
			"children":[
				0
			],
			"name":"arm_lowres",
			"rotation":[
				0.70710688829422,
				0,
				0,
				0.7071066498756409
			],
			"scale":[
				-5.799996852874756,
				-5.7999958992004395,
				-5.7999958992004395
			]
		},
		{
			"mesh":1,
			"name":"arm_lowres.001_M_Hands_0"
		},
		{
			"children":[
				2
			],
			"name":"arm_lowres.001",
			"rotation":[
				-0.70710688829422,
				0,
				0,
				0.7071066498756409
			],
			"scale":[
				5.799996852874756,
				5.7999958992004395,
				5.7999958992004395
			],
			"translation":[
				0,
				0,
				-7.239351272583008
			]
		},
		{
			"mesh":2,
			"name":"arm_lowres.002_M_Hands_0"
		},
		{
			"children":[
				4
			],
			"name":"arm_lowres.002",
			"rotation":[
				-0.70710688829422,
				0,
				0,
				0.7071066498756409
			],
			"scale":[
				5.799996852874756,
				5.7999958992004395,
				5.7999958992004395
			]
		},
		{
			"mesh":3,
			"name":"arm_lowres.004_M_Hands_0"
		},
		{
			"children":[
				6
			],
			"name":"arm_lowres.004",
			"rotation":[
				-0.70710688829422,
				0,
				0,
				0.7071066498756409
			],
			"scale":[
				5.799996852874756,
				5.7999958992004395,
				5.7999958992004395
			],
			"translation":[
				0.795874834060669,
				5.136847972869873,
				-2.187635898590088
			]
		},
		{
			"mesh":4,
			"name":"arm_lowres.005_M_Hands_0"
		},
		{
			"children":[
				8
			],
			"name":"arm_lowres.005",
			"rotation":[
				-0.70710688829422,
				0,
				0,
				0.7071066498756409
			],
			"scale":[
				5.799996852874756,
				5.7999958992004395,
				5.7999958992004395
			],
			"translation":[
				-1.8968466520309448,
				1.9175716638565063,
				-0.48482388257980347
			]
		},
		{
			"mesh":5,
			"name":"arm_lowres.006_M_Hands_0"
		},
		{
			"children":[
				10
			],
			"name":"arm_lowres.006",
			"rotation":[
				0.70710688829422,
				0,
				0,
				0.7071066498756409
			],
			"scale":[
				-5.799996852874756,
				-5.7999958992004395,
				-5.7999958992004395
			],
			"translation":[
				5.8926777839660645,
				0,
				-22.827760696411133
			]
		},
		{
			"mesh":6,
			"name":"arm_lowres.007_M_Hands_0"
		},
		{
			"children":[
				12
			],
			"name":"arm_lowres.007",
			"rotation":[
				-0.70710688829422,
				0,
				0,
				0.7071066498756409
			],
			"scale":[
				5.799996852874756,
				5.7999958992004395,
				5.7999958992004395
			]
		},
		{
			"mesh":7,
			"name":"arm_lowres.008_M_Hands_0"
		},
		{
			"children":[
				14
			],
			"name":"arm_lowres.008",
			"rotation":[
				0.70710688829422,
				0,
				0,
				0.7071066498756409
			],
			"scale":[
				-5.799996852874756,
				-5.7999958992004395,
				-5.7999958992004395
			],
			"translation":[
				-3.891481876373291,
				0,
				0
			]
		},
		{
			"mesh":8,
			"name":"arm_lowres.009_M_Hands_0"
		},
		{
			"children":[
				16
			],
			"name":"arm_lowres.009",
			"rotation":[
				-0.6795188188552856,
				0.19558674097061157,
				-0.19558672606945038,
				0.6795188188552856
			],
			"scale":[
				5.799996852874756,
				5.799996852874756,
				5.799996376037598
			],
			"translation":[
				38.85968780517578,
				-23.047239303588867,
				15.381011009216309
			]
		},
		{
			"mesh":9,
			"name":"arm_lowres.010_M_Hands_0"
		},
		{
			"children":[
				18
			],
			"name":"arm_lowres.010",
			"rotation":[
				0.70710688829422,
				0,
				0,
				0.7071066498756409
			],
			"scale":[
				-5.799996852874756,
				-5.7999958992004395,
				-5.7999958992004395
			],
			"translation":[
				-28.959121704101562,
				-1.4004496335983276,
				11.264349937438965
			]
		},
		{
			"mesh":10,
			"name":"arm_lowres.011_M_Hands_0"
		},
		{
			"children":[
				20
			],
			"name":"arm_lowres.011",
			"rotation":[
				-0.70710688829422,
				0,
				0,
				0.7071066498756409
			],
			"scale":[
				5.799996852874756,
				5.7999958992004395,
				5.7999958992004395
			],
			"translation":[
				21.670013427734375,
				-5.33957576751709,
				-33.41304016113281
			]
		},
		{
			"mesh":11,
			"name":"arm_lowres.013_M_Hands_0"
		},
		{
			"children":[
				22
			],
			"name":"arm_lowres.013",
			"rotation":[
				0.70710688829422,
				0,
				0,
				0.7071066498756409
			],
			"scale":[
				-5.799996852874756,
				-5.7999958992004395,
				-5.7999958992004395
			],
			"translation":[
				0,
				2.7656538804876618e-05,
				0
			]
		},
		{
			"name":"Sphere",
			"rotation":[
				-0.70710688829422,
				0,
				0,
				0.7071066498756409
			],
			"scale":[
				5.799996852874756,
				5.7999958992004395,
				5.7999958992004395
			],
			"translation":[
				0.0016472062561661005,
				-63.80843734741211,
				2.438551664352417
			]
		},
		{
			"name":"vortex",
			"rotation":[
				0,
				-0.9971588850021362,
				0,
				0.07532697916030884
			],
			"scale":[
				5.799996852874756,
				5.799996852874756,
				5.799996376037598
			],
			"translation":[
				0.0016472062561661005,
				-63.503273010253906,
				2.438551664352417
			]
		},
		{
			"children":[
				1,
				3,
				5,
				7,
				9,
				11,
				13,
				15,
				17,
				19,
				21,
				23,
				24,
				25
			],
			"name":"RootNode"
		},
		{
			"children":[
				26
			],
			"name":"3c05c5a1bfcc44f79370f88d62ff35a6.fbx",
			"rotation":[
				0.70710688829422,
				0,
				0,
				0.7071066498756409
			],
			"scale":[
				0.009999999776482582,
				0.010000000707805157,
				0.010000000707805157
			]
		},
		{
			"children":[
				27
			],
			"name":"Sketchfab_model",
			"rotation":[
				-0.70710688829422,
				0,
				0,
				0.7071066498756409
			]
		}
	],
	"materials":[
		{
			"doubleSided":true,
			"emissiveFactor":[
				0.4828040897846222,
				0.4828040897846222,
				0.4828040897846222
			],
			"emissiveTexture":{
				"index":0
			},
			"extensions":{
				"KHR_materials_specular":{
					"specularFactor":0
				}
			},
			"name":"M_Hands",
			"normalTexture":{
				"index":1
			},
			"pbrMetallicRoughness":{
				"baseColorTexture":{
					"index":2
				},
				"metallicFactor":0,
				"metallicRoughnessTexture":{
					"index":3
				}
			}
		}
	],
	"meshes":[
		{
			"name":"arm_lowres_M_Hands_0",
			"primitives":[
				{
					"attributes":{
						"POSITION":0,
						"NORMAL":1,
						"TEXCOORD_0":2,
						"TEXCOORD_1":3,
						"TEXCOORD_2":4,
						"TEXCOORD_3":5
					},
					"indices":6,
					"material":0
				}
			]
		},
		{
			"name":"arm_lowres.001_M_Hands_0",
			"primitives":[
				{
					"attributes":{
						"POSITION":7,
						"NORMAL":8,
						"TEXCOORD_0":9,
						"TEXCOORD_1":10,
						"TEXCOORD_2":11,
						"TEXCOORD_3":12
					},
					"indices":6,
					"material":0
				}
			]
		},
		{
			"name":"arm_lowres.002_M_Hands_0",
			"primitives":[
				{
					"attributes":{
						"POSITION":13,
						"NORMAL":14,
						"TEXCOORD_0":15,
						"TEXCOORD_1":16,
						"TEXCOORD_2":17,
						"TEXCOORD_3":18
					},
					"indices":6,
					"material":0
				}
			]
		},
		{
			"name":"arm_lowres.004_M_Hands_0",
			"primitives":[
				{
					"attributes":{
						"POSITION":19,
						"NORMAL":20,
						"TEXCOORD_0":21,
						"TEXCOORD_1":22,
						"TEXCOORD_2":23,
						"TEXCOORD_3":24
					},
					"indices":6,
					"material":0
				}
			]
		},
		{
			"name":"arm_lowres.005_M_Hands_0",
			"primitives":[
				{
					"attributes":{
						"POSITION":25,
						"NORMAL":26,
						"TEXCOORD_0":27,
						"TEXCOORD_1":28,
						"TEXCOORD_2":29,
						"TEXCOORD_3":30
					},
					"indices":6,
					"material":0
				}
			]
		},
		{
			"name":"arm_lowres.006_M_Hands_0",
			"primitives":[
				{
					"attributes":{
						"POSITION":31,
						"NORMAL":32,
						"TEXCOORD_0":33,
						"TEXCOORD_1":34,
						"TEXCOORD_2":35,
						"TEXCOORD_3":36
					},
					"indices":6,
					"material":0
				}
			]
		},
		{
			"name":"arm_lowres.007_M_Hands_0",
			"primitives":[
				{
					"attributes":{
						"POSITION":37,
						"NORMAL":38,
						"TEXCOORD_0":39,
						"TEXCOORD_1":40,
						"TEXCOORD_2":41,
						"TEXCOORD_3":42
					},
					"indices":6,
					"material":0
				}
			]
		},
		{
			"name":"arm_lowres.008_M_Hands_0",
			"primitives":[
				{
					"attributes":{
						"POSITION":43,
						"NORMAL":44,
						"TEXCOORD_0":45,
						"TEXCOORD_1":46,
						"TEXCOORD_2":47,
						"TEXCOORD_3":48
					},
					"indices":6,
					"material":0
				}
			]
		},
		{
			"name":"arm_lowres.009_M_Hands_0",
			"primitives":[
				{
					"attributes":{
						"POSITION":49,
						"NORMAL":50,
						"TEXCOORD_0":51,
						"TEXCOORD_1":52,
						"TEXCOORD_2":53,
						"TEXCOORD_3":54
					},
					"indices":6,
					"material":0
				}
			]
		},
		{
			"name":"arm_lowres.010_M_Hands_0",
			"primitives":[
				{
					"attributes":{
						"POSITION":55,
						"NORMAL":56,
						"TEXCOORD_0":57,
						"TEXCOORD_1":58,
						"TEXCOORD_2":59,
						"TEXCOORD_3":60
					},
					"indices":6,
					"material":0
				}
			]
		},
		{
			"name":"arm_lowres.011_M_Hands_0",
			"primitives":[
				{
					"attributes":{
						"POSITION":61,
						"NORMAL":62,
						"TEXCOORD_0":63,
						"TEXCOORD_1":64,
						"TEXCOORD_2":65,
						"TEXCOORD_3":66
					},
					"indices":6,
					"material":0
				}
			]
		},
		{
			"name":"arm_lowres.013_M_Hands_0",
			"primitives":[
				{
					"attributes":{
						"POSITION":67,
						"NORMAL":68,
						"TEXCOORD_0":69,
						"TEXCOORD_1":70,
						"TEXCOORD_2":71,
						"TEXCOORD_3":72
					},
					"indices":6,
					"material":0
				}
			]
		}
	],
	"textures":[
		{
			"sampler":0,
			"source":0
		},
		{
			"sampler":0,
			"source":1
		},
		{
			"sampler":0,
			"source":0
		},
		{
			"sampler":0,
			"source":2
		}
	],
	"images":[
		{
			"mimeType":"image/png",
			"name":"M_Hands_baseColor",
			"uri":"M_Hands_baseColor.png"
		},
		{
			"mimeType":"image/png",
			"name":"M_Hands_normal",
			"uri":"M_Hands_normal.png"
		},
		{
			"mimeType":"image/png",
			"name":"M_Hands_metallicRoughness",
			"uri":"M_Hands_metallicRoughness.png"
		}
	],
	"accessors":[
		{
			"bufferView":0,
			"componentType":5126,
			"count":1443,
			"max":[
				-0.2773404121398926,
				0.6895824670791626,
				-1.2819461822509766
			],
			"min":[
				-8.267428398132324,
				-5.181411266326904,
				-13.825172424316406
			],
			"type":"VEC3"
		},
		{
			"bufferView":1,
			"componentType":5126,
			"count":1443,
			"type":"VEC3"
		},
		{
			"bufferView":2,
			"componentType":5126,
			"count":1443,
			"type":"VEC2"
		},
		{
			"bufferView":3,
			"componentType":5126,
			"count":1443,
			"type":"VEC2"
		},
		{
			"bufferView":4,
			"componentType":5126,
			"count":1443,
			"type":"VEC2"
		},
		{
			"bufferView":5,
			"componentType":5126,
			"count":1443,
			"type":"VEC2"
		},
		{
			"bufferView":6,
			"componentType":5123,
			"count":6861,
			"type":"SCALAR"
		},
		{
			"bufferView":7,
			"componentType":5126,
			"count":1443,
			"max":[
				2.473137378692627,
				-3.734915018081665,
				1.2045555114746094
			],
			"min":[
				-1.8236722946166992,
				-12.500110626220703,
				-12.051957130432129
			],
			"type":"VEC3"
		},
		{
			"bufferView":8,
			"componentType":5126,
			"count":1443,
			"type":"VEC3"
		},
		{
			"bufferView":9,
			"componentType":5126,
			"count":1443,
			"type":"VEC2"
		},
		{
			"bufferView":10,
			"componentType":5126,
			"count":1443,
			"type":"VEC2"
		},
		{
			"bufferView":11,
			"componentType":5126,
			"count":1443,
			"type":"VEC2"
		},
		{
			"bufferView":12,
			"componentType":5126,
			"count":1443,
			"type":"VEC2"
		},
		{
			"bufferView":13,
			"componentType":5126,
			"count":1443,
			"max":[
				0.43028056621551514,
				5.7548017501831055,
				0.2088031768798828
			],
			"min":[
				-4.430550575256348,
				0.22773849964141846,
				-13.415388107299805
			],
			"type":"VEC3"
		},
		{
			"bufferView":14,
			"componentType":5126,
			"count":1443,
			"type":"VEC3"
		},
		{
			"bufferView":15,
			"componentType":5126,
			"count":1443,
			"type":"VEC2"
		},
		{
			"bufferView":16,
			"componentType":5126,
			"count":1443,
			"type":"VEC2"
		},
		{
			"bufferView":17,
			"componentType":5126,
			"count":1443,
			"type":"VEC2"
		},
		{
			"bufferView":18,
			"componentType":5126,
			"count":1443,
			"type":"VEC2"
		},
		{
			"bufferView":19,
			"componentType":5126,
			"count":1443,
			"max":[
				1.4447085857391357,
				1.7377058267593384,
				-3.911093235015869
			],
			"min":[
				-6.979826927185059,
				-5.389449119567871,
				-16.731353759765625
			],
			"type":"VEC3"
		},
		{
			"bufferView":20,
			"componentType":5126,
			"count":1443,
			"type":"VEC3"
		},
		{
			"bufferView":21,
			"componentType":5126,
			"count":1443,
			"type":"VEC2"
		},
		{
			"bufferView":22,
			"componentType":5126,
			"count":1443,
			"type":"VEC2"
		},
		{
			"bufferView":23,
			"componentType":5126,
			"count":1443,
			"type":"VEC2"
		},
		{
			"bufferView":24,
			"componentType":5126,
			"count":1443,
			"type":"VEC2"
		},
		{
			"bufferView":25,
			"componentType":5126,
			"count":1443,
			"max":[
				0.8292016983032227,
				1.0691454410552979,
				1.9200782775878906
			],
			"min":[
				-4.008018493652344,
				-3.863327980041504,
				-12.140172004699707
			],
			"type":"VEC3"
		},
		{
			"bufferView":26,
			"componentType":5126,
			"count":1443,
			"type":"VEC3"
		},
		{
			"bufferView":27,
			"componentType":5126,
			"count":1443,
			"type":"VEC2"
		},
		{
			"bufferView":28,
			"componentType":5126,
			"count":1443,
			"type":"VEC2"
		},
		{
			"bufferView":29,
			"componentType":5126,
			"count":1443,
			"type":"VEC2"
		},
		{
			"bufferView":30,
			"componentType":5126,
			"count":1443,
			"type":"VEC2"
		},
		{
			"bufferView":31,
			"componentType":5126,
			"count":1443,
			"max":[
				-1.4396085739135742,
				1.0054552555084229,
				2.4248485565185547
			],
			"min":[
				-9.612807273864746,
				-3.900404691696167,
				-11.70579719543457
			],
			"type":"VEC3"
		},
		{
			"bufferView":32,
			"componentType":5126,
			"count":1443,
			"type":"VEC3"
		},
		{
			"bufferView":33,
			"componentType":5126,
			"count":1443,
			"type":"VEC2"
		},
		{
			"bufferView":34,
			"componentType":5126,
			"count":1443,
			"type":"VEC2"
		},
		{
			"bufferView":35,
			"componentType":5126,
			"count":1443,
			"type":"VEC2"
		},
		{
			"bufferView":36,
			"componentType":5126,
			"count":1443,
			"type":"VEC2"
		},
		{
			"bufferView":37,
			"componentType":5126,
			"count":1443,
			"max":[
				-0.18094146251678467,
				4.781942844390869,
				-5.078634262084961
			],
			"min":[
				-4.595494270324707,
				-0.7039210796356201,
				-19.230369567871094
			],
			"type":"VEC3"
		},
		{
			"bufferView":38,
			"componentType":5126,
			"count":1443,
			"type":"VEC3"
		},
		{
			"bufferView":39,
			"componentType":5126,
			"count":1443,
			"type":"VEC2"
		},
		{
			"bufferView":40,
			"componentType":5126,
			"count":1443,
			"type":"VEC2"
		},
		{
			"bufferView":41,
			"componentType":5126,
			"count":1443,
			"type":"VEC2"
		},
		{
			"bufferView":42,
			"componentType":5126,
			"count":1443,
			"type":"VEC2"
		},
		{
			"bufferView":43,
			"componentType":5126,
			"count":1443,
			"max":[
				0.23965513706207275,
				6.219487190246582,
				-1.721160888671875
			],
			"min":[
				-3.624328136444092,
				-2.757599353790283,
				-13.254802703857422
			],
			"type":"VEC3"
		},
		{
			"bufferView":44,
			"componentType":5126,
			"count":1443,
			"type":"VEC3"
		},
		{
			"bufferView":45,
			"componentType":5126,
			"count":1443,
			"type":"VEC2"
		},
		{
			"bufferView":46,
			"componentType":5126,
			"count":1443,
			"type":"VEC2"
		},
		{
			"bufferView":47,
			"componentType":5126,
			"count":1443,
			"type":"VEC2"
		},
		{
			"bufferView":48,
			"componentType":5126,
			"count":1443,
			"type":"VEC2"
		},
		{
			"bufferView":49,
			"componentType":5126,
			"count":1443,
			"max":[
				0.6877464652061462,
				5.067089080810547,
				-1.1213769912719727
			],
			"min":[
				-8.956863403320312,
				0.41761040687561035,
				-12.74574089050293
			],
			"type":"VEC3"
		},
		{
			"bufferView":50,
			"componentType":5126,
			"count":1443,
			"type":"VEC3"
		},
		{
			"bufferView":51,
			"componentType":5126,
			"count":1443,
			"type":"VEC2"
		},
		{
			"bufferView":52,
			"componentType":5126,
			"count":1443,
			"type":"VEC2"
		},
		{
			"bufferView":53,
			"componentType":5126,
			"count":1443,
			"type":"VEC2"
		},
		{
			"bufferView":54,
			"componentType":5126,
			"count":1443,
			"type":"VEC2"
		},
		{
			"bufferView":55,
			"componentType":5126,
			"count":1443,
			"max":[
				4.96403694152832,
				4.638986587524414,
				-1.6580390930175781
			],
			"min":[
				-2.8257176876068115,
				-0.0532374382019043,
				-14.059555053710938
			],
			"type":"VEC3"
		},
		{
			"bufferView":56,
			"componentType":5126,
			"count":1443,
			"type":"VEC3"
		},
		{
			"bufferView":57,
			"componentType":5126,
			"count":1443,
			"type":"VEC2"
		},
		{
			"bufferView":58,
			"componentType":5126,
			"count":1443,
			"type":"VEC2"
		},
		{
			"bufferView":59,
			"componentType":5126,
			"count":1443,
			"type":"VEC2"
		},
		{
			"bufferView":60,
			"componentType":5126,
			"count":1443,
			"type":"VEC2"
		},
		{
			"bufferView":61,
			"componentType":5126,
			"count":1443,
			"max":[
				3.4727885723114014,
				-1.1644535064697266,
				0.4674034118652344
			],
			"min":[
				-3.2157630920410156,
				-5.777085304260254,
				-12.2457275390625
			],
			"type":"VEC3"
		},
		{
			"bufferView":62,
			"componentType":5126,
			"count":1443,
			"type":"VEC3"
		},
		{
			"bufferView":63,
			"componentType":5126,
			"count":1443,
			"type":"VEC2"
		},
		{
			"bufferView":64,
			"componentType":5126,
			"count":1443,
			"type":"VEC2"
		},
		{
			"bufferView":65,
			"componentType":5126,
			"count":1443,
			"type":"VEC2"
		},
		{
			"bufferView":66,
			"componentType":5126,
			"count":1443,
			"type":"VEC2"
		},
		{
			"bufferView":67,
			"componentType":5126,
			"count":1443,
			"max":[
				3.651247501373291,
				-2.038693428039551,
				0.3646564483642578
			],
			"min":[
				-3.97370982170105,
				-5.648019313812256,
				-12.075884819030762
			],
			"type":"VEC3"
		},
		{
			"bufferView":68,
			"componentType":5126,
			"count":1443,
			"type":"VEC3"
		},
		{
			"bufferView":69,
			"componentType":5126,
			"count":1443,
			"type":"VEC2"
		},
		{
			"bufferView":70,
			"componentType":5126,
			"count":1443,
			"type":"VEC2"
		},
		{
			"bufferView":71,
			"componentType":5126,
			"count":1443,
			"type":"VEC2"
		},
		{
			"bufferView":72,
			"componentType":5126,
			"count":1443,
			"type":"VEC2"
		}
	],
	"bufferViews":[
		{
			"buffer":0,
			"byteLength":17316,
			"byteOffset":0,
			"target":34962
		},
		{
			"buffer":0,
			"byteLength":17316,
			"byteOffset":17316,
			"target":34962
		},
		{
			"buffer":0,
			"byteLength":11544,
			"byteOffset":34632,
			"target":34962
		},
		{
			"buffer":0,
			"byteLength":11544,
			"byteOffset":46176,
			"target":34962
		},
		{
			"buffer":0,
			"byteLength":11544,
			"byteOffset":57720,
			"target":34962
		},
		{
			"buffer":0,
			"byteLength":11544,
			"byteOffset":69264,
			"target":34962
		},
		{
			"buffer":0,
			"byteLength":13722,
			"byteOffset":80808,
			"target":34963
		},
		{
			"buffer":0,
			"byteLength":17316,
			"byteOffset":94532,
			"target":34962
		},
		{
			"buffer":0,
			"byteLength":17316,
			"byteOffset":111848,
			"target":34962
		},
		{
			"buffer":0,
			"byteLength":11544,
			"byteOffset":129164,
			"target":34962
		},
		{
			"buffer":0,
			"byteLength":11544,
			"byteOffset":140708,
			"target":34962
		},
		{
			"buffer":0,
			"byteLength":11544,
			"byteOffset":152252,
			"target":34962
		},
		{
			"buffer":0,
			"byteLength":11544,
			"byteOffset":163796,
			"target":34962
		},
		{
			"buffer":0,
			"byteLength":17316,
			"byteOffset":175340,
			"target":34962
		},
		{
			"buffer":0,
			"byteLength":17316,
			"byteOffset":192656,
			"target":34962
		},
		{
			"buffer":0,
			"byteLength":11544,
			"byteOffset":209972,
			"target":34962
		},
		{
			"buffer":0,
			"byteLength":11544,
			"byteOffset":221516,
			"target":34962
		},
		{
			"buffer":0,
			"byteLength":11544,
			"byteOffset":233060,
			"target":34962
		},
		{
			"buffer":0,
			"byteLength":11544,
			"byteOffset":244604,
			"target":34962
		},
		{
			"buffer":0,
			"byteLength":17316,
			"byteOffset":256148,
			"target":34962
		},
		{
			"buffer":0,
			"byteLength":17316,
			"byteOffset":273464,
			"target":34962
		},
		{
			"buffer":0,
			"byteLength":11544,
			"byteOffset":290780,
			"target":34962
		},
		{
			"buffer":0,
			"byteLength":11544,
			"byteOffset":302324,
			"target":34962
		},
		{
			"buffer":0,
			"byteLength":11544,
			"byteOffset":313868,
			"target":34962
		},
		{
			"buffer":0,
			"byteLength":11544,
			"byteOffset":325412,
			"target":34962
		},
		{
			"buffer":0,
			"byteLength":17316,
			"byteOffset":336956,
			"target":34962
		},
		{
			"buffer":0,
			"byteLength":17316,
			"byteOffset":354272,
			"target":34962
		},
		{
			"buffer":0,
			"byteLength":11544,
			"byteOffset":371588,
			"target":34962
		},
		{
			"buffer":0,
			"byteLength":11544,
			"byteOffset":383132,
			"target":34962
		},
		{
			"buffer":0,
			"byteLength":11544,
			"byteOffset":394676,
			"target":34962
		},
		{
			"buffer":0,
			"byteLength":11544,
			"byteOffset":406220,
			"target":34962
		},
		{
			"buffer":0,
			"byteLength":17316,
			"byteOffset":417764,
			"target":34962
		},
		{
			"buffer":0,
			"byteLength":17316,
			"byteOffset":435080,
			"target":34962
		},
		{
			"buffer":0,
			"byteLength":11544,
			"byteOffset":452396,
			"target":34962
		},
		{
			"buffer":0,
			"byteLength":11544,
			"byteOffset":463940,
			"target":34962
		},
		{
			"buffer":0,
			"byteLength":11544,
			"byteOffset":475484,
			"target":34962
		},
		{
			"buffer":0,
			"byteLength":11544,
			"byteOffset":487028,
			"target":34962
		},
		{
			"buffer":0,
			"byteLength":17316,
			"byteOffset":498572,
			"target":34962
		},
		{
			"buffer":0,
			"byteLength":17316,
			"byteOffset":515888,
			"target":34962
		},
		{
			"buffer":0,
			"byteLength":11544,
			"byteOffset":533204,
			"target":34962
		},
		{
			"buffer":0,
			"byteLength":11544,
			"byteOffset":544748,
			"target":34962
		},
		{
			"buffer":0,
			"byteLength":11544,
			"byteOffset":556292,
			"target":34962
		},
		{
			"buffer":0,
			"byteLength":11544,
			"byteOffset":567836,
			"target":34962
		},
		{
			"buffer":0,
			"byteLength":17316,
			"byteOffset":579380,
			"target":34962
		},
		{
			"buffer":0,
			"byteLength":17316,
			"byteOffset":596696,
			"target":34962
		},
		{
			"buffer":0,
			"byteLength":11544,
			"byteOffset":614012,
			"target":34962
		},
		{
			"buffer":0,
			"byteLength":11544,
			"byteOffset":625556,
			"target":34962
		},
		{
			"buffer":0,
			"byteLength":11544,
			"byteOffset":637100,
			"target":34962
		},
		{
			"buffer":0,
			"byteLength":11544,
			"byteOffset":648644,
			"target":34962
		},
		{
			"buffer":0,
			"byteLength":17316,
			"byteOffset":660188,
			"target":34962
		},
		{
			"buffer":0,
			"byteLength":17316,
			"byteOffset":677504,
			"target":34962
		},
		{
			"buffer":0,
			"byteLength":11544,
			"byteOffset":694820,
			"target":34962
		},
		{
			"buffer":0,
			"byteLength":11544,
			"byteOffset":706364,
			"target":34962
		},
		{
			"buffer":0,
			"byteLength":11544,
			"byteOffset":717908,
			"target":34962
		},
		{
			"buffer":0,
			"byteLength":11544,
			"byteOffset":729452,
			"target":34962
		},
		{
			"buffer":0,
			"byteLength":17316,
			"byteOffset":740996,
			"target":34962
		},
		{
			"buffer":0,
			"byteLength":17316,
			"byteOffset":758312,
			"target":34962
		},
		{
			"buffer":0,
			"byteLength":11544,
			"byteOffset":775628,
			"target":34962
		},
		{
			"buffer":0,
			"byteLength":11544,
			"byteOffset":787172,
			"target":34962
		},
		{
			"buffer":0,
			"byteLength":11544,
			"byteOffset":798716,
			"target":34962
		},
		{
			"buffer":0,
			"byteLength":11544,
			"byteOffset":810260,
			"target":34962
		},
		{
			"buffer":0,
			"byteLength":17316,
			"byteOffset":821804,
			"target":34962
		},
		{
			"buffer":0,
			"byteLength":17316,
			"byteOffset":839120,
			"target":34962
		},
		{
			"buffer":0,
			"byteLength":11544,
			"byteOffset":856436,
			"target":34962
		},
		{
			"buffer":0,
			"byteLength":11544,
			"byteOffset":867980,
			"target":34962
		},
		{
			"buffer":0,
			"byteLength":11544,
			"byteOffset":879524,
			"target":34962
		},
		{
			"buffer":0,
			"byteLength":11544,
			"byteOffset":891068,
			"target":34962
		},
		{
			"buffer":0,
			"byteLength":17316,
			"byteOffset":902612,
			"target":34962
		},
		{
			"buffer":0,
			"byteLength":17316,
			"byteOffset":919928,
			"target":34962
		},
		{
			"buffer":0,
			"byteLength":11544,
			"byteOffset":937244,
			"target":34962
		},
		{
			"buffer":0,
			"byteLength":11544,
			"byteOffset":948788,
			"target":34962
		},
		{
			"buffer":0,
			"byteLength":11544,
			"byteOffset":960332,
			"target":34962
		},
		{
			"buffer":0,
			"byteLength":11544,
			"byteOffset":971876,
			"target":34962
		}
	],
	"samplers":[
		{
			"magFilter":9729,
			"minFilter":9987
		}
	],
	"buffers":[
		{
			"byteLength":983420,
			"uri":"scene.bin"
		}
	]
}
