{
	"asset":{
		"generator":"Khronos glTF Blender I/O v4.5.48",
		"version":"2.0"
	},
	"scene":0,
	"scenes":[
		{
			"name":"Scene",
			"nodes":[
				15
			]
		}
	],
	"nodes":[
		{
			"mesh":0,
			"name":"Object_10"
		},
		{
			"mesh":1,
			"name":"Object_11"
		},
		{
			"mesh":2,
			"name":"Object_12"
		},
		{
			"mesh":3,
			"name":"Object_13"
		},
		{
			"mesh":4,
			"name":"Object_14"
		},
		{
			"mesh":5,
			"name":"Object_15"
		},
		{
			"mesh":6,
			"name":"Object_2"
		},
		{
			"mesh":7,
			"name":"Object_3"
		},
		{
			"mesh":8,
			"name":"Object_4"
		},
		{
			"mesh":9,
			"name":"Object_5"
		},
		{
			"mesh":10,
			"name":"Object_6"
		},
		{
			"mesh":11,
			"name":"Object_7"
		},
		{
			"mesh":12,
			"name":"Object_8"
		},
		{
			"mesh":13,
			"name":"Object_9"
		},
		{
			"children":[
				0,
				1,
				2,
				3,
				4,
				5,
				6,
				7,
				8,
				9,
				10,
				11,
				12,
				13
			],
			"name":"Time_Machine_CAD.stl.cleaner.materialmerger.gles"
		},
		{
			"children":[
				14
			],
			"name":"Sketchfab_model",
			"rotation":[
				-0.70710688829422,
				0,
				0,
				0.7071066498756409
			]
		}
	],
	"materials":[
		{
			"doubleSided":true,
			"name":"Scene_-_Root",
			"pbrMetallicRoughness":{
				"baseColorFactor":[
					0.3268727660179138,
					0.3268727660179138,
					0.3268727660179138,
					1
				],
				"roughnessFactor":0.11407677084207535
			}
		}
	],
	"meshes":[
		{
			"name":"Object_8",
			"primitives":[
				{
					"attributes":{
						"POSITION":0,
						"NORMAL":1
					},
					"indices":2,
					"material":0
				}
			]
		},
		{
			"name":"Object_9",
			"primitives":[
				{
					"attributes":{
						"POSITION":3,
						"NORMAL":4
					},
					"indices":5,
					"material":0
				}
			]
		},
		{
			"name":"Object_10",
			"primitives":[
				{
					"attributes":{
						"POSITION":6,
						"NORMAL":7
					},
					"indices":8,
					"material":0
				}
			]
		},
		{
			"name":"Object_11",
			"primitives":[
				{
					"attributes":{
						"POSITION":9,
						"NORMAL":10
					},
					"indices":11,
					"material":0
				}
			]
		},
		{
			"name":"Object_12",
			"primitives":[
				{
					"attributes":{
						"POSITION":12,
						"NORMAL":13
					},
					"indices":14,
					"material":0
				}
			]
		},
		{
			"name":"Object_13",
			"primitives":[
				{
					"attributes":{
						"POSITION":15,
						"NORMAL":16
					},
					"indices":17,
					"material":0
				}
			]
		},
		{
			"name":"Object_0",
			"primitives":[
				{
					"attributes":{
						"POSITION":18,
						"NORMAL":19
					},
					"indices":20,
					"material":0
				}
			]
		},
		{
			"name":"Object_1",
			"primitives":[
				{
					"attributes":{
						"POSITION":21,
						"NORMAL":22
					},
					"indices":23,
					"material":0
				}
			]
		},
		{
			"name":"Object_2",
			"primitives":[
				{
					"attributes":{
						"POSITION":24,
						"NORMAL":25
					},
					"indices":26,
					"material":0
				}
			]
		},
		{
			"name":"Object_3",
			"primitives":[
				{
					"attributes":{
						"POSITION":27,
						"NORMAL":28
					},
					"indices":29,
					"material":0
				}
			]
		},
		{
			"name":"Object_4",
			"primitives":[
				{
					"attributes":{
						"POSITION":30,
						"NORMAL":31
					},
					"indices":32,
					"material":0
				}
			]
		},
		{
			"name":"Object_5",
			"primitives":[
				{
					"attributes":{
						"POSITION":33,
						"NORMAL":34
					},
					"indices":35,
					"material":0
				}
			]
		},
		{
			"name":"Object_6",
			"primitives":[
				{
					"attributes":{
						"POSITION":36,
						"NORMAL":37
					},
					"indices":38,
					"material":0
				}
			]
		},
		{
			"name":"Object_7",
			"primitives":[
				{
					"attributes":{
						"POSITION":39,
						"NORMAL":40
					},
					"indices":41,
					"material":0
				}
			]
		}
	],
	"accessors":[
		{
			"bufferView":0,
			"componentType":5126,
			"count":51265,
			"max":[
				-38.63759994506836,
				8.462874412536621,
				16.932228088378906
			],
			"min":[
				-54.99302291870117,
				-6.3201775550842285,
				0.9191502928733826
			],
			"type":"VEC3"
		},
		{
			"bufferView":1,
			"componentType":5126,
			"count":51265,
			"type":"VEC3"
		},
		{
			"bufferView":2,
			"componentType":5123,
			"count":79011,
			"type":"SCALAR"
		},
		{
			"bufferView":3,
			"componentType":5126,
			"count":36191,
			"max":[
				12.205986022949219,
				43.85225296020508,
				44.63274002075195
			],
			"min":[
				-54.3153190612793,
				-42.7637939453125,
				0.02257542312145233
			],
			"type":"VEC3"
		},
		{
			"bufferView":4,
			"componentType":5126,
			"count":36191,
			"type":"VEC3"
		},
		{
			"bufferView":5,
			"componentType":5123,
			"count":92721,
			"type":"SCALAR"
		},
		{
			"bufferView":6,
			"componentType":5126,
			"count":30177,
			"max":[
				8.055459022521973,
				40.39677047729492,
				43.20577621459961
			],
			"min":[
				-38.61860656738281,
				-39.39762496948242,
				-0.0006978876772336662
			],
			"type":"VEC3"
		},
		{
			"bufferView":7,
			"componentType":5126,
			"count":30177,
			"type":"VEC3"
		},
		{
			"bufferView":8,
			"componentType":5123,
			"count":122415,
			"type":"SCALAR"
		},
		{
			"bufferView":9,
			"componentType":5126,
			"count":30761,
			"max":[
				12.21397876739502,
				39.83634948730469,
				43.199134826660156
			],
			"min":[
				-38.10099411010742,
				-42.32676315307617,
				0.0033728552516549826
			],
			"type":"VEC3"
		},
		{
			"bufferView":10,
			"componentType":5126,
			"count":30761,
			"type":"VEC3"
		},
		{
			"bufferView":11,
			"componentType":5123,
			"count":118959,
			"type":"SCALAR"
		},
		{
			"bufferView":12,
			"componentType":5126,
			"count":43778,
			"max":[
				11.423210144042969,
				43.324947357177734,
				43.84560775756836
			],
			"min":[
				-55.71672439575195,
				-42.28583526611328,
				0.026125121861696243
			],
			"type":"VEC3"
		},
		{
			"bufferView":13,
			"componentType":5126,
			"count":43778,
			"type":"VEC3"
		},
		{
			"bufferView":14,
			"componentType":5123,
			"count":59211,
			"type":"SCALAR"
		},
		{
			"bufferView":15,
			"componentType":5126,
			"count":903,
			"max":[
				-6.110905647277832,
				7.923590660095215,
				9.190078735351562
			],
			"min":[
				-32.971107482910156,
				0.24567650258541107,
				9.08995532989502
			],
			"type":"VEC3"
		},
		{
			"bufferView":16,
			"componentType":5126,
			"count":903,
			"type":"VEC3"
		},
		{
			"bufferView":17,
			"componentType":5123,
			"count":2160,
			"type":"SCALAR"
		},
		{
			"bufferView":18,
			"componentType":5126,
			"count":30537,
			"max":[
				7.672186851501465,
				39.83536911010742,
				43.6126823425293
			],
			"min":[
				-8.499238967895508,
				-39.39774703979492,
				1.0000096559524536
			],
			"type":"VEC3"
		},
		{
			"bufferView":19,
			"componentType":5126,
			"count":30537,
			"type":"VEC3"
		},
		{
			"bufferView":20,
			"componentType":5123,
			"count":120345,
			"type":"SCALAR"
		},
		{
			"bufferView":21,
			"componentType":5126,
			"count":43158,
			"max":[
				9.211956024169922,
				17.521137237548828,
				30.119462966918945
			],
			"min":[
				-54.987918853759766,
				-39.3719482421875,
				0.0022939941845834255
			],
			"type":"VEC3"
		},
		{
			"bufferView":22,
			"componentType":5126,
			"count":43158,
			"type":"VEC3"
		},
		{
			"bufferView":23,
			"componentType":5123,
			"count":94308,
			"type":"SCALAR"
		},
		{
			"bufferView":24,
			"componentType":5126,
			"count":32722,
			"max":[
				13.209478378295898,
				43.883270263671875,
				43.890403747558594
			],
			"min":[
				-9.153899192810059,
				-39.10148620605469,
				0.0029128638561815023
			],
			"type":"VEC3"
		},
		{
			"bufferView":25,
			"componentType":5126,
			"count":32722,
			"type":"VEC3"
		},
		{
			"bufferView":26,
			"componentType":5123,
			"count":105183,
			"type":"SCALAR"
		},
		{
			"bufferView":27,
			"componentType":5126,
			"count":30762,
			"max":[
				11.154409408569336,
				39.84063720703125,
				45.00220489501953
			],
			"min":[
				-37.459781646728516,
				-42.87928771972656,
				0.000928796362131834
			],
			"type":"VEC3"
		},
		{
			"bufferView":28,
			"componentType":5126,
			"count":30762,
			"type":"VEC3"
		},
		{
			"bufferView":29,
			"componentType":5123,
			"count":118485,
			"type":"SCALAR"
		},
		{
			"bufferView":30,
			"componentType":5126,
			"count":30054,
			"max":[
				10.418859481811523,
				40.39774703979492,
				30.470914840698242
			],
			"min":[
				-38.60192108154297,
				-42.32450866699219,
				0.0020531127229332924
			],
			"type":"VEC3"
		},
		{
			"bufferView":31,
			"componentType":5126,
			"count":30054,
			"type":"VEC3"
		},
		{
			"bufferView":32,
			"componentType":5123,
			"count":110757,
			"type":"SCALAR"
		},
		{
			"bufferView":33,
			"componentType":5126,
			"count":29996,
			"max":[
				9.20775032043457,
				39.840213775634766,
				43.84844207763672
			],
			"min":[
				-55.7286491394043,
				-22.212642669677734,
				-9.855481039267033e-05
			],
			"type":"VEC3"
		},
		{
			"bufferView":34,
			"componentType":5126,
			"count":29996,
			"type":"VEC3"
		},
		{
			"bufferView":35,
			"componentType":5123,
			"count":98778,
			"type":"SCALAR"
		},
		{
			"bufferView":36,
			"componentType":5126,
			"count":36434,
			"max":[
				6.724247455596924,
				22.42746925354004,
				29.841402053833008
			],
			"min":[
				-54.98222351074219,
				-21.42690086364746,
				-0.004609894938766956
			],
			"type":"VEC3"
		},
		{
			"bufferView":37,
			"componentType":5126,
			"count":36434,
			"type":"VEC3"
		},
		{
			"bufferView":38,
			"componentType":5123,
			"count":87303,
			"type":"SCALAR"
		},
		{
			"bufferView":39,
			"componentType":5126,
			"count":54020,
			"max":[
				-39.11780548095703,
				6.3685712814331055,
				9.140934944152832
			],
			"min":[
				-48.58091354370117,
				-6.353355407714844,
				5.3159050941467285
			],
			"type":"VEC3"
		},
		{
			"bufferView":40,
			"componentType":5126,
			"count":54020,
			"type":"VEC3"
		},
		{
			"bufferView":41,
			"componentType":5123,
			"count":79455,
			"type":"SCALAR"
		}
	],
	"bufferViews":[
		{
			"buffer":0,
			"byteLength":615180,
			"byteOffset":0,
			"target":34962
		},
		{
			"buffer":0,
			"byteLength":615180,
			"byteOffset":615180,
			"target":34962
		},
		{
			"buffer":0,
			"byteLength":158022,
			"byteOffset":1230360,
			"target":34963
		},
		{
			"buffer":0,
			"byteLength":434292,
			"byteOffset":1388384,
			"target":34962
		},
		{
			"buffer":0,
			"byteLength":434292,
			"byteOffset":1822676,
			"target":34962
		},
		{
			"buffer":0,
			"byteLength":185442,
			"byteOffset":2256968,
			"target":34963
		},
		{
			"buffer":0,
			"byteLength":362124,
			"byteOffset":2442412,
			"target":34962
		},
		{
			"buffer":0,
			"byteLength":362124,
			"byteOffset":2804536,
			"target":34962
		},
		{
			"buffer":0,
			"byteLength":244830,
			"byteOffset":3166660,
			"target":34963
		},
		{
			"buffer":0,
			"byteLength":369132,
			"byteOffset":3411492,
			"target":34962
		},
		{
			"buffer":0,
			"byteLength":369132,
			"byteOffset":3780624,
			"target":34962
		},
		{
			"buffer":0,
			"byteLength":237918,
			"byteOffset":4149756,
			"target":34963
		},
		{
			"buffer":0,
			"byteLength":525336,
			"byteOffset":4387676,
			"target":34962
		},
		{
			"buffer":0,
			"byteLength":525336,
			"byteOffset":4913012,
			"target":34962
		},
		{
			"buffer":0,
			"byteLength":118422,
			"byteOffset":5438348,
			"target":34963
		},
		{
			"buffer":0,
			"byteLength":10836,
			"byteOffset":5556772,
			"target":34962
		},
		{
			"buffer":0,
			"byteLength":10836,
			"byteOffset":5567608,
			"target":34962
		},
		{
			"buffer":0,
			"byteLength":4320,
			"byteOffset":5578444,
			"target":34963
		},
		{
			"buffer":0,
			"byteLength":366444,
			"byteOffset":5582764,
			"target":34962
		},
		{
			"buffer":0,
			"byteLength":366444,
			"byteOffset":5949208,
			"target":34962
		},
		{
			"buffer":0,
			"byteLength":240690,
			"byteOffset":6315652,
			"target":34963
		},
		{
			"buffer":0,
			"byteLength":517896,
			"byteOffset":6556344,
			"target":34962
		},
		{
			"buffer":0,
			"byteLength":517896,
			"byteOffset":7074240,
			"target":34962
		},
		{
			"buffer":0,
			"byteLength":188616,
			"byteOffset":7592136,
			"target":34963
		},
		{
			"buffer":0,
			"byteLength":392664,
			"byteOffset":7780752,
			"target":34962
		},
		{
			"buffer":0,
			"byteLength":392664,
			"byteOffset":8173416,
			"target":34962
		},
		{
			"buffer":0,
			"byteLength":210366,
			"byteOffset":8566080,
			"target":34963
		},
		{
			"buffer":0,
			"byteLength":369144,
			"byteOffset":8776448,
			"target":34962
		},
		{
			"buffer":0,
			"byteLength":369144,
			"byteOffset":9145592,
			"target":34962
		},
		{
			"buffer":0,
			"byteLength":236970,
			"byteOffset":9514736,
			"target":34963
		},
		{
			"buffer":0,
			"byteLength":360648,
			"byteOffset":9751708,
			"target":34962
		},
		{
			"buffer":0,
			"byteLength":360648,
			"byteOffset":10112356,
			"target":34962
		},
		{
			"buffer":0,
			"byteLength":221514,
			"byteOffset":10473004,
			"target":34963
		},
		{
			"buffer":0,
			"byteLength":359952,
			"byteOffset":10694520,
			"target":34962
		},
		{
			"buffer":0,
			"byteLength":359952,
			"byteOffset":11054472,
			"target":34962
		},
		{
			"buffer":0,
			"byteLength":197556,
			"byteOffset":11414424,
			"target":34963
		},
		{
			"buffer":0,
			"byteLength":437208,
			"byteOffset":11611980,
			"target":34962
		},
		{
			"buffer":0,
			"byteLength":437208,
			"byteOffset":12049188,
			"target":34962
		},
		{
			"buffer":0,
			"byteLength":174606,
			"byteOffset":12486396,
			"target":34963
		},
		{
			"buffer":0,
			"byteLength":648240,
			"byteOffset":12661004,
			"target":34962
		},
		{
			"buffer":0,
			"byteLength":648240,
			"byteOffset":13309244,
			"target":34962
		},
		{
			"buffer":0,
			"byteLength":158910,
			"byteOffset":13957484,
			"target":34963
		}
	],
	"buffers":[
		{
			"byteLength":14116396,
			"uri":"scene75.bin"
		}
	]
}
