{
	"asset":{
		"generator":"Khronos glTF Blender I/O v4.5.48",
		"version":"2.0"
	},
	"extensionsUsed":[
		"KHR_materials_specular",
		"KHR_materials_ior"
	],
	"scene":0,
	"scenes":[
		{
			"name":"Scene",
			"nodes":[
				1,
				2,
				3,
				4,
				6,
				7,
				13,
				22
			]
		}
	],
	"nodes":[
		{
			"mesh":0,
			"name":"Sphere.007_0"
		},
		{
			"children":[
				0
			],
			"name":"Sphere.007"
		},
		{
			"name":"NurbsPath.004",
			"rotation":[
				-0.14267751574516296,
				-0.23881220817565918,
				-0.5626331567764282,
				0.7784958481788635
			],
			"scale":[
				0.3553522229194641,
				0.35535332560539246,
				0.355349063873291
			],
			"translation":[
				0.6316199898719788,
				0.08973000198602676,
				4.162519931793213
			]
		},
		{
			"name":"Plane.005",
			"rotation":[
				0.7149998545646667,
				-0.010252322070300579,
				0.003201605984941125,
				0.6990422010421753
			],
			"scale":[
				0.7856613397598267,
				1.0115408897399902,
				1.0115381479263306
			],
			"translation":[
				0.09877000004053116,
				2.14697003364563,
				3.0848898887634277
			]
		},
		{
			"name":"Cylinder.002",
			"rotation":[
				0.011283284984529018,
				-0.009512757882475853,
				-0.004985629580914974,
				0.9998787641525269
			],
			"scale":[
				0.8671000599861145,
				0.8670939207077026,
				0.8670976161956787
			],
			"translation":[
				0.11286000162363052,
				1.496109962463379,
				3.313380002975464
			]
		},
		{
			"mesh":1,
			"name":"Plane.006_0"
		},
		{
			"children":[
				5
			],
			"name":"Plane.006"
		},
		{
			"name":"Sphere.008",
			"rotation":[
				0.011281068436801434,
				-0.009513076394796371,
				-0.004985377192497253,
				0.9998787641525269
			],
			"scale":[
				0.9177917838096619,
				0.917799174785614,
				0.917799711227417
			],
			"translation":[
				0.10751999914646149,
				1.439769983291626,
				3.1944100856781006
			]
		},
		{
			"mesh":2,
			"name":"Sphere.009_0"
		},
		{
			"mesh":3,
			"name":"Sphere.009_0.001"
		},
		{
			"mesh":4,
			"name":"Sphere.009_0.002"
		},
		{
			"mesh":5,
			"name":"Sphere.009_0.003"
		},
		{
			"mesh":6,
			"name":"Sphere.009_0.004"
		},
		{
			"children":[
				8,
				9,
				10,
				11,
				12
			],
			"name":"Sphere.009"
		},
		{
			"name":"Spot.001"
		},
		{
			"children":[
				14
			],
			"name":"Spot.005",
			"rotation":[
				0.5620999336242676,
				0.44090837240219116,
				-0.32403111457824707,
				0.62019944190979
			],
			"scale":[
				0.10180046409368515,
				0.10179616510868073,
				0.10179412364959717
			],
			"translation":[
				0.3428899645805359,
				-1.563179850578308,
				-0.004730015993118286
			]
		},
		{
			"name":"Spot.003"
		},
		{
			"children":[
				16
			],
			"name":"Spot.008",
			"rotation":[
				0.38005587458610535,
				0.06104816868901253,
				-0.8520342111587524,
				0.35477936267852783
			],
			"scale":[
				0.10180207341909409,
				0.10179707407951355,
				0.10179690271615982
			],
			"translation":[
				-1.025359869003296,
				-0.6221699118614197,
				0.42250993847846985
			]
		},
		{
			"name":"Spot.002"
		},
		{
			"children":[
				18
			],
			"name":"Spot.009",
			"rotation":[
				-0.07999120652675629,
				0.4593556523323059,
				0.3015810251235962,
				0.8316505551338196
			],
			"scale":[
				0.10179663449525833,
				0.10180244594812393,
				0.1018034964799881
			],
			"translation":[
				0.8999899625778198,
				0.5358800292015076,
				0.5688599348068237
			]
		},
		{
			"name":"Sun.001",
			"translation":[
				0,
				0,
				3.635883331298828e-06
			]
		},
		{
			"children":[
				20
			],
			"name":"Sun.002",
			"rotation":[
				-0.09421007335186005,
				0.04938273876905441,
				-0.16399776935577393,
				0.9807091951370239
			],
			"scale":[
				0.10180092602968216,
				0.10179387032985687,
				0.10179384052753448
			],
			"translation":[
				0.5071399807929993,
				0.5544299483299255,
				3.164139747619629
			]
		},
		{
			"children":[
				15,
				17,
				19,
				21
			],
			"name":"Empty",
			"scale":[
				9.823390007019043,
				9.823390007019043,
				9.823390007019043
			],
			"translation":[
				0.047540001571178436,
				1.3818700313568115,
				4.313159942626953
			]
		}
	],
	"materials":[
		{
			"doubleSided":true,
			"extensions":{
				"KHR_materials_specular":{
					"specularColorFactor":[
						0.05000000074505806,
						0.05000000074505806,
						0.05000000074505806
					]
				},
				"KHR_materials_ior":{
					"ior":1000
				}
			},
			"name":"Root.001",
			"pbrMetallicRoughness":{
				"metallicFactor":0,
				"roughnessFactor":0.6000000238418579
			}
		},
		{
			"doubleSided":true,
			"extensions":{
				"KHR_materials_specular":{
					"specularColorFactor":[
						0.3199999928474426,
						0.3199999928474426,
						0.3199999928474426
					]
				},
				"KHR_materials_ior":{
					"ior":1000
				}
			},
			"name":"Material.002",
			"pbrMetallicRoughness":{
				"baseColorFactor":[
					0.6800000071525574,
					0.6800000071525574,
					0.6800000071525574,
					1
				],
				"metallicFactor":0,
				"roughnessFactor":0.6600000262260437
			}
		}
	],
	"meshes":[
		{
			"name":"Sphere.007_0.001",
			"primitives":[
				{
					"attributes":{
						"POSITION":0,
						"NORMAL":1
					},
					"indices":2,
					"material":0
				}
			]
		},
		{
			"name":"Plane.006_0.001",
			"primitives":[
				{
					"attributes":{
						"POSITION":3,
						"NORMAL":4
					},
					"indices":5,
					"material":0
				}
			]
		},
		{
			"name":"Sphere.009_0.005",
			"primitives":[
				{
					"attributes":{
						"POSITION":6,
						"NORMAL":7
					},
					"indices":8,
					"material":1
				}
			]
		},
		{
			"name":"Sphere.009_0.006",
			"primitives":[
				{
					"attributes":{
						"POSITION":9,
						"NORMAL":10
					},
					"indices":11,
					"material":1
				}
			]
		},
		{
			"name":"Sphere.009_0.007",
			"primitives":[
				{
					"attributes":{
						"POSITION":12,
						"NORMAL":13
					},
					"indices":14,
					"material":1
				}
			]
		},
		{
			"name":"Sphere.009_0.008",
			"primitives":[
				{
					"attributes":{
						"POSITION":15,
						"NORMAL":16
					},
					"indices":17,
					"material":1
				}
			]
		},
		{
			"name":"Sphere.009_0.009",
			"primitives":[
				{
					"attributes":{
						"POSITION":18,
						"NORMAL":19
					},
					"indices":20,
					"material":1
				}
			]
		}
	],
	"accessors":[
		{
			"bufferView":0,
			"componentType":5126,
			"count":14732,
			"max":[
				2.790940046310425,
				1.5617799758911133,
				3.2695000171661377
			],
			"min":[
				2.4343600273132324,
				1.220829963684082,
				3.065310001373291
			],
			"type":"VEC3"
		},
		{
			"bufferView":1,
			"componentType":5126,
			"count":14732,
			"type":"VEC3"
		},
		{
			"bufferView":2,
			"componentType":5123,
			"count":88083,
			"type":"SCALAR"
		},
		{
			"bufferView":3,
			"componentType":5126,
			"count":3216,
			"max":[
				1.9084099531173706,
				1.744670033454895,
				0.8294399976730347
			],
			"min":[
				-1.598230004310608,
				1.1469000577926636,
				0.34213998913764954
			],
			"type":"VEC3"
		},
		{
			"bufferView":4,
			"componentType":5126,
			"count":3216,
			"type":"VEC3"
		},
		{
			"bufferView":5,
			"componentType":5123,
			"count":16896,
			"type":"SCALAR"
		},
		{
			"bufferView":6,
			"componentType":5126,
			"count":65813,
			"max":[
				2.275749921798706,
				2.244499921798706,
				4.1087799072265625
			],
			"min":[
				-1.9282900094985962,
				0.4123600125312805,
				0.5674300193786621
			],
			"type":"VEC3"
		},
		{
			"bufferView":7,
			"componentType":5126,
			"count":65813,
			"type":"VEC3"
		},
		{
			"bufferView":8,
			"componentType":5125,
			"count":347541,
			"type":"SCALAR"
		},
		{
			"bufferView":9,
			"componentType":5126,
			"count":66855,
			"max":[
				2.365989923477173,
				2.240380048751831,
				4.075429916381836
			],
			"min":[
				-2.49072003364563,
				0.35975998640060425,
				0.5810800194740295
			],
			"type":"VEC3"
		},
		{
			"bufferView":10,
			"componentType":5126,
			"count":66855,
			"type":"VEC3"
		},
		{
			"bufferView":11,
			"componentType":5125,
			"count":330309,
			"type":"SCALAR"
		},
		{
			"bufferView":12,
			"componentType":5126,
			"count":67224,
			"max":[
				2.4660398960113525,
				2.2415599822998047,
				4.086009979248047
			],
			"min":[
				-2.5707099437713623,
				0.37985000014305115,
				0.5687000155448914
			],
			"type":"VEC3"
		},
		{
			"bufferView":13,
			"componentType":5126,
			"count":67224,
			"type":"VEC3"
		},
		{
			"bufferView":14,
			"componentType":5125,
			"count":329007,
			"type":"SCALAR"
		},
		{
			"bufferView":15,
			"componentType":5126,
			"count":66510,
			"max":[
				2.46478009223938,
				2.2444798946380615,
				4.103149890899658
			],
			"min":[
				-2.5679800510406494,
				0.35975998640060425,
				0.5680599808692932
			],
			"type":"VEC3"
		},
		{
			"bufferView":16,
			"componentType":5126,
			"count":66510,
			"type":"VEC3"
		},
		{
			"bufferView":17,
			"componentType":5125,
			"count":221577,
			"type":"SCALAR"
		},
		{
			"bufferView":18,
			"componentType":5126,
			"count":574,
			"max":[
				1.5656299591064453,
				1.9417699575424194,
				4.05771017074585
			],
			"min":[
				-1.4437700510025024,
				0.5382099747657776,
				1.4031399488449097
			],
			"type":"VEC3"
		},
		{
			"bufferView":19,
			"componentType":5126,
			"count":574,
			"type":"VEC3"
		},
		{
			"bufferView":20,
			"componentType":5123,
			"count":642,
			"type":"SCALAR"
		}
	],
	"bufferViews":[
		{
			"buffer":0,
			"byteLength":176784,
			"byteOffset":0,
			"target":34962
		},
		{
			"buffer":0,
			"byteLength":176784,
			"byteOffset":176784,
			"target":34962
		},
		{
			"buffer":0,
			"byteLength":176166,
			"byteOffset":353568,
			"target":34963
		},
		{
			"buffer":0,
			"byteLength":38592,
			"byteOffset":529736,
			"target":34962
		},
		{
			"buffer":0,
			"byteLength":38592,
			"byteOffset":568328,
			"target":34962
		},
		{
			"buffer":0,
			"byteLength":33792,
			"byteOffset":606920,
			"target":34963
		},
		{
			"buffer":0,
			"byteLength":789756,
			"byteOffset":640712,
			"target":34962
		},
		{
			"buffer":0,
			"byteLength":789756,
			"byteOffset":1430468,
			"target":34962
		},
		{
			"buffer":0,
			"byteLength":1390164,
			"byteOffset":2220224,
			"target":34963
		},
		{
			"buffer":0,
			"byteLength":802260,
			"byteOffset":3610388,
			"target":34962
		},
		{
			"buffer":0,
			"byteLength":802260,
			"byteOffset":4412648,
			"target":34962
		},
		{
			"buffer":0,
			"byteLength":1321236,
			"byteOffset":5214908,
			"target":34963
		},
		{
			"buffer":0,
			"byteLength":806688,
			"byteOffset":6536144,
			"target":34962
		},
		{
			"buffer":0,
			"byteLength":806688,
			"byteOffset":7342832,
			"target":34962
		},
		{
			"buffer":0,
			"byteLength":1316028,
			"byteOffset":8149520,
			"target":34963
		},
		{
			"buffer":0,
			"byteLength":798120,
			"byteOffset":9465548,
			"target":34962
		},
		{
			"buffer":0,
			"byteLength":798120,
			"byteOffset":10263668,
			"target":34962
		},
		{
			"buffer":0,
			"byteLength":886308,
			"byteOffset":11061788,
			"target":34963
		},
		{
			"buffer":0,
			"byteLength":6888,
			"byteOffset":11948096,
			"target":34962
		},
		{
			"buffer":0,
			"byteLength":6888,
			"byteOffset":11954984,
			"target":34962
		},
		{
			"buffer":0,
			"byteLength":1284,
			"byteOffset":11961872,
			"target":34963
		}
	],
	"buffers":[
		{
			"byteLength":11963156,
			"uri":"scene.bin"
		}
	]
}
