{
  "accessors": [
    {
      "bufferView": 2,
      "componentType": 5126,
      "count": 18875,
      "max": [
        34.951900482177734,
        29.478099822998047,
        48.862300872802734
      ],
      "min": [
        -34.951900482177734,
        -29.478099822998047,
        -48.862300872802734
      ],
      "type": "VEC3"
    },
    {
      "bufferView": 2,
      "byteOffset": 226500,
      "componentType": 5126,
      "count": 18875,
      "max": [
        0.9999580383300781,
        0.9999738931655884,
        1.0
      ],
      "min": [
        -0.9999599456787109,
        -0.999976396560669,
        -0.9998299479484558
      ],
      "type": "VEC3"
    },
    {
      "bufferView": 3,
      "componentType": 5126,
      "count": 18875,
      "max": [
        0.9999969005584717,
        0.9999887943267822,
        1.0,
        1.0
      ],
      "min": [
        -0.9999979734420776,
        -0.9999959468841553,
        -0.999984860420227,
        -1.0
      ],
      "type": "VEC4"
    },
    {
      "bufferView": 1,
      "componentType": 5126,
      "count": 18875,
      "max": [
        0.9996010065078735,
        0.9996020197868347
      ],
      "min": [
        0.00039900001138448715,
        0.0003980000037699938
      ],
      "type": "VEC2"
    },
    {
      "bufferView": 1,
      "byteOffset": 151000,
      "componentType": 5126,
      "count": 18875,
      "max": [
        0.9996010065078735,
        0.9996020197868347
      ],
      "min": [
        0.00039900001138448715,
        0.0003980000037699938
      ],
      "type": "VEC2"
    },
    {
      "bufferView": 1,
      "byteOffset": 302000,
      "componentType": 5126,
      "count": 18875,
      "max": [
        0.9996010065078735,
        0.9996020197868347
      ],
      "min": [
        0.00039900001138448715,
        0.0003980000037699938
      ],
      "type": "VEC2"
    },
    {
      "bufferView": 0,
      "componentType": 5125,
      "count": 65916,
      "type": "SCALAR"
    }
  ],
  "asset": {
    "extras": {
      "author": "neil1neil38 (https://sketchfab.com/neil1neil38)",
      "license": "CC-BY-4.0 (http://creativecommons.org/licenses/by/4.0/)",
      "source": "https://sketchfab.com/3d-models/space-marine-18c4db9aeabe4d9e98ae76c80c1c2581",
      "title": "Space Marine"
    },
    "generator": "Sketchfab-16.73.0",
    "version": "2.0"
  },
  "bufferViews": [
    {
      "buffer": 0,
      "byteLength": 263664,
      "name": "floatBufferViews",
      "target": 34963
    },
    {
      "buffer": 0,
      "byteLength": 453000,
      "byteOffset": 263664,
      "byteStride": 8,
      "name": "floatBufferViews",
      "target": 34962
    },
    {
      "buffer": 0,
      "byteLength": 453000,
      "byteOffset": 716664,
      "byteStride": 12,
      "name": "floatBufferViews",
      "target": 34962
    },
    {
      "buffer": 0,
      "byteLength": 302000,
      "byteOffset": 1169664,
      "byteStride": 16,
      "name": "floatBufferViews",
      "target": 34962
    }
  ],
  "buffers": [
    {
      "byteLength": 1471664,
      "uri": "scene.bin"
    }
  ],
  "images": [
    {
      "uri": "textures/Material.627_baseColor.png"
    },
    {
      "uri": "textures/Material.627_metallicRoughness.png"
    },
    {
      "uri": "textures/Material.627_normal.png"
    }
  ],
  "materials": [
    {
      "doubleSided": true,
      "name": "Material.627",
      "normalTexture": {
        "index": 2,
        "texCoord": 1
      },
      "pbrMetallicRoughness": {
        "baseColorTexture": {
          "index": 0
        },
        "metallicRoughnessTexture": {
          "index": 1
        }
      }
    }
  ],
  "meshes": [
    {
      "name": "texture_pbr_v128_Material.627_0",
      "primitives": [
        {
          "attributes": {
            "NORMAL": 1,
            "POSITION": 0,
            "TANGENT": 2,
            "TEXCOORD_0": 3,
            "TEXCOORD_1": 4,
            "TEXCOORD_2": 5
          },
          "indices": 6,
          "material": 0,
          "mode": 4
        }
      ]
    }
  ],
  "nodes": [
    {
      "children": [
        1
      ],
      "matrix": [
        1.0,
        0.0,
        0.0,
        0.0,
        0.0,
        2.220446049250313e-16,
        -1.0,
        0.0,
        0.0,
        1.0,
        2.220446049250313e-16,
        0.0,
        0.0,
        0.0,
        0.0,
        1.0
      ],
      "name": "Sketchfab_model"
    },
    {
      "children": [
        2
      ],
      "matrix": [
        0.009999999776482582,
        0.0,
        0.0,
        0.0,
        0.0,
        0.0,
        0.009999999776482582,
        0.0,
        0.0,
        -0.009999999776482582,
        0.0,
        0.0,
        0.0,
        0.0,
        0.0,
        1.0
      ],
      "name": "cb794483240243b39e61375d9a3d96ea.fbx"
    },
    {
      "children": [
        3
      ],
      "name": "RootNode"
    },
    {
      "children": [
        4
      ],
      "matrix": [
        1.0,
        0.0,
        0.0,
        0.0,
        0.0,
        -4.371139006309477e-08,
        0.999999999999999,
        0.0,
        0.0,
        -0.999999999999999,
        -4.371139006309477e-08,
        0.0,
        0.0,
        0.0,
        0.0,
        1.0
      ],
      "name": "texture_pbr_v128"
    },
    {
      "mesh": 0,
      "name": "texture_pbr_v128_Material.627_0"
    }
  ],
  "samplers": [
    {
      "magFilter": 9729,
      "minFilter": 9987,
      "wrapS": 10497,
      "wrapT": 10497
    }
  ],
  "scene": 0,
  "scenes": [
    {
      "name": "Sketchfab_Scene",
      "nodes": [
        0
      ]
    }
  ],
  "textures": [
    {
      "sampler": 0,
      "source": 0
    },
    {
      "sampler": 0,
      "source": 1
    },
    {
      "sampler": 0,
      "source": 2
    }
  ]
}
